<svg width="195" height="195" viewBox="0 0 195 195" fill="none" xmlns="http://www.w3.org/2000/svg">
<circle cx="97.5" cy="97.5" r="95" fill="black" stroke="white" stroke-width="5"/>
<path fill-rule="evenodd" clip-rule="evenodd" d="M94.2308 149.848C94.4583 149.301 94.8429 148.833 95.3358 148.504C95.8288 148.176 96.4082 148 97.0008 148C97.5934 148 98.1727 148.176 98.6657 148.504C99.1587 148.833 99.5432 149.301 99.7708 149.848L107.249 167.798C107.264 167.831 107.279 167.866 107.292 167.9L109.77 173.848C109.926 174.212 110.008 174.604 110.012 175.001C110.016 175.397 109.941 175.791 109.792 176.158C109.643 176.525 109.423 176.86 109.144 177.141C108.865 177.423 108.533 177.647 108.167 177.799C107.801 177.952 107.408 178.03 107.011 178.03C106.615 178.03 106.222 177.951 105.856 177.798C105.49 177.646 105.159 177.422 104.88 177.14C104.601 176.858 104.381 176.524 104.232 176.156L102.501 172.002H91.5008L89.7708 176.156C89.6192 176.52 89.3975 176.85 89.1183 177.128C88.8391 177.406 88.5078 177.627 88.1435 177.777C87.7791 177.927 87.3887 178.004 86.9946 178.003C86.6006 178.002 86.2105 177.924 85.8468 177.772C85.483 177.62 85.1527 177.399 84.8746 177.12C84.5965 176.84 84.3761 176.509 84.2261 176.145C84.076 175.78 83.9992 175.39 84 174.996C84.0008 174.602 84.0792 174.212 84.2308 173.848L86.7108 167.902L86.7538 167.798L94.2308 149.848ZM97.0008 150.002C96.8034 150.002 96.6104 150.06 96.4462 150.17C96.2819 150.279 96.1538 150.435 96.0778 150.617L88.5948 168.577L88.5858 168.597C88.5798 168.611 88.5741 168.625 88.5688 168.639L88.5598 168.66L86.0778 174.617C86.0272 174.738 86.001 174.868 86.0007 175C86.0004 175.131 86.0259 175.261 86.0759 175.382C86.1258 175.504 86.1992 175.614 86.2919 175.707C86.3845 175.801 86.4946 175.874 86.6158 175.925C86.737 175.976 86.867 176.002 86.9983 176.002C87.1296 176.002 87.2597 175.977 87.3812 175.927C87.5027 175.877 87.6131 175.804 87.7062 175.711C87.7993 175.618 87.8732 175.508 87.9238 175.387L89.9108 170.617C89.9868 170.435 90.1149 170.279 90.2792 170.17C90.4434 170.06 90.6364 170.002 90.8338 170.002H103.168C103.365 170.002 103.558 170.06 103.722 170.17C103.887 170.279 104.015 170.435 104.091 170.617L106.078 175.387C106.18 175.632 106.375 175.826 106.62 175.927C106.866 176.028 107.141 176.027 107.386 175.925C107.631 175.823 107.825 175.628 107.926 175.382C108.027 175.137 108.026 174.862 107.924 174.617L105.442 168.66L105.433 168.639L105.424 168.616C105.421 168.61 105.418 168.603 105.416 168.597L105.406 168.577L97.9238 150.617C97.8478 150.435 97.7196 150.279 97.5553 150.17C97.3911 150.06 97.1981 150.002 97.0008 150.002ZM97.0008 155.202C97.1981 155.202 97.3911 155.26 97.5553 155.37C97.7196 155.479 97.8478 155.635 97.9238 155.817L102.424 166.617C102.487 166.769 102.512 166.934 102.496 167.098C102.48 167.262 102.424 167.42 102.333 167.557C102.242 167.694 102.118 167.806 101.973 167.884C101.828 167.961 101.665 168.002 101.501 168.002H92.5008C92.3361 168.002 92.174 167.961 92.0288 167.884C91.8836 167.806 91.7599 167.694 91.6685 167.557C91.5772 167.42 91.5212 167.262 91.5053 167.098C91.4895 166.934 91.5144 166.769 91.5778 166.617L96.0778 155.817C96.1538 155.635 96.2819 155.479 96.4462 155.37C96.6104 155.26 96.8034 155.202 97.0008 155.202ZM94.0008 166.002H100.001L97.0008 158.802L94.0008 166.002Z" fill="white"/>
<path fill-rule="evenodd" clip-rule="evenodd" d="M152 139V115C152 114.204 152.316 113.441 152.879 112.879C153.441 112.316 154.204 112 155 112C155.796 112 156.559 112.316 157.121 112.879C157.684 113.441 158 114.204 158 115V123.757L168.879 112.88C169.156 112.593 169.487 112.365 169.853 112.208C170.219 112.05 170.612 111.968 171.011 111.964C171.409 111.961 171.804 112.037 172.173 112.188C172.542 112.338 172.877 112.561 173.158 112.843C173.44 113.124 173.663 113.459 173.813 113.828C173.964 114.197 174.04 114.592 174.037 114.99C174.033 115.389 173.951 115.782 173.793 116.148C173.636 116.514 173.408 116.845 173.121 117.122L163.243 127L173.121 136.879C173.683 137.442 173.999 138.205 173.999 139C173.999 139.795 173.683 140.558 173.121 141.121C172.558 141.683 171.795 141.999 171 141.999C170.205 141.999 169.442 141.683 168.879 141.121L159 131.243L158 132.243V139C158 139.796 157.684 140.559 157.121 141.121C156.559 141.684 155.796 142 155 142C154.204 142 153.441 141.684 152.879 141.121C152.316 140.559 152 139.796 152 139ZM154 115V139C154 139.265 154.105 139.52 154.293 139.707C154.48 139.895 154.735 140 155 140C155.265 140 155.52 139.895 155.707 139.707C155.895 139.52 156 139.265 156 139V131.828C156 131.563 156.105 131.308 156.293 131.121L158.293 129.121C158.481 128.934 158.735 128.828 159 128.828C159.265 128.828 159.519 128.934 159.707 129.121L170.293 139.707C170.482 139.889 170.734 139.99 170.996 139.988C171.259 139.985 171.509 139.88 171.695 139.695C171.88 139.509 171.985 139.259 171.988 138.996C171.99 138.734 171.889 138.482 171.707 138.293L161.121 127.707C160.934 127.519 160.828 127.265 160.828 127C160.828 126.735 160.934 126.481 161.121 126.293L171.707 115.707C171.889 115.518 171.99 115.266 171.988 115.004C171.985 114.741 171.88 114.491 171.695 114.305C171.509 114.12 171.259 114.015 170.996 114.012C170.734 114.01 170.482 114.111 170.293 114.293L157.707 126.879C157.567 127.019 157.389 127.114 157.195 127.153C157.001 127.191 156.8 127.171 156.617 127.096C156.435 127.02 156.278 126.892 156.169 126.727C156.059 126.563 156 126.37 156 126.172V115C156 114.735 155.895 114.48 155.707 114.293C155.52 114.105 155.265 114 155 114C154.735 114 154.48 114.105 154.293 114.293C154.105 114.48 154 114.735 154 115Z" fill="white"/>
<path fill-rule="evenodd" clip-rule="evenodd" d="M22 115C22 114.204 22.3161 113.441 22.8787 112.879C23.4413 112.316 24.2044 112 25 112H35C37.3869 112 39.6761 112.948 41.364 114.636C43.0518 116.324 44 118.613 44 121C44 123.387 43.0518 125.676 41.364 127.364C39.6761 129.052 37.3869 130 35 130H28V139C28 139.796 27.6839 140.559 27.1213 141.121C26.5587 141.684 25.7956 142 25 142C24.2044 142 23.4413 141.684 22.8787 141.121C22.3161 140.559 22 139.796 22 139V115ZM25 114C24.7348 114 24.4804 114.105 24.2929 114.293C24.1054 114.48 24 114.735 24 115V139C24 139.265 24.1054 139.52 24.2929 139.707C24.4804 139.895 24.7348 140 25 140C25.2652 140 25.5196 139.895 25.7071 139.707C25.8946 139.52 26 139.265 26 139V129C26 128.735 26.1054 128.48 26.2929 128.293C26.4804 128.105 26.7348 128 27 128H35C35.9193 128 36.8295 127.819 37.6788 127.467C38.5281 127.115 39.2997 126.6 39.9497 125.95C40.5998 125.3 41.1154 124.528 41.4672 123.679C41.8189 122.83 42 121.919 42 121C42 120.081 41.8189 119.17 41.4672 118.321C41.1154 117.472 40.5998 116.7 39.9497 116.05C39.2997 115.4 38.5281 114.885 37.6788 114.533C36.8295 114.181 35.9193 114 35 114H25ZM26 117C26 116.735 26.1054 116.48 26.2929 116.293C26.4804 116.105 26.7348 116 27 116H35C36.3261 116 37.5979 116.527 38.5355 117.464C39.4732 118.402 40 119.674 40 121C40 122.326 39.4732 123.598 38.5355 124.536C37.5979 125.473 36.3261 126 35 126H27C26.7348 126 26.4804 125.895 26.2929 125.707C26.1054 125.52 26 125.265 26 125V117ZM28 118V124H35C35.7956 124 36.5587 123.684 37.1213 123.121C37.6839 122.559 38 121.796 38 121C38 120.204 37.6839 119.441 37.1213 118.879C36.5587 118.316 35.7956 118 35 118H28Z" fill="white"/>
<path fill-rule="evenodd" clip-rule="evenodd" d="M123 138C123 137.204 123.316 136.441 123.879 135.879C124.441 135.316 125.204 135 126 135H136C138.001 134.999 139.945 135.665 141.525 136.893C143.105 138.12 144.231 139.839 144.725 141.778C145.219 143.717 145.053 145.766 144.252 147.6C143.452 149.434 142.063 150.948 140.306 151.905L144.683 160.658C145.032 161.369 145.085 162.188 144.832 162.938C144.579 163.688 144.04 164.308 143.332 164.662C142.624 165.016 141.804 165.076 141.052 164.829C140.3 164.582 139.677 164.047 139.317 163.342L134.146 153H129V162C129 162.796 128.684 163.559 128.121 164.121C127.559 164.684 126.796 165 126 165C125.204 165 124.441 164.684 123.879 164.121C123.316 163.559 123 162.796 123 162V138ZM126 137C125.735 137 125.48 137.105 125.293 137.293C125.105 137.48 125 137.735 125 138V162C125 162.265 125.105 162.52 125.293 162.707C125.48 162.895 125.735 163 126 163C126.265 163 126.52 162.895 126.707 162.707C126.895 162.52 127 162.265 127 162V152C127 151.735 127.105 151.48 127.293 151.293C127.48 151.105 127.735 151 128 151H134.764C134.95 151 135.132 151.052 135.29 151.15C135.447 151.247 135.575 151.387 135.658 151.553L141.106 162.447C141.162 162.569 141.242 162.678 141.341 162.768C141.44 162.858 141.557 162.927 141.683 162.971C141.809 163.016 141.943 163.034 142.077 163.026C142.211 163.017 142.341 162.982 142.461 162.922C142.581 162.862 142.687 162.779 142.774 162.677C142.861 162.575 142.927 162.457 142.967 162.329C143.008 162.201 143.022 162.067 143.009 161.934C142.997 161.8 142.958 161.671 142.894 161.553L138.06 151.884C137.998 151.76 137.963 151.625 137.956 151.487C137.949 151.348 137.971 151.21 138.02 151.081C138.07 150.951 138.145 150.834 138.243 150.735C138.34 150.636 138.456 150.559 138.585 150.508C140.097 149.905 141.351 148.795 142.133 147.368C142.915 145.94 143.175 144.285 142.87 142.687C142.564 141.088 141.711 139.646 140.457 138.609C139.203 137.571 137.627 137.002 136 137H126ZM127 140C127 139.735 127.105 139.48 127.293 139.293C127.48 139.105 127.735 139 128 139H136C137.326 139 138.598 139.527 139.536 140.464C140.473 141.402 141 142.674 141 144C141 145.326 140.473 146.598 139.536 147.536C138.598 148.473 137.326 149 136 149H128C127.735 149 127.48 148.895 127.293 148.707C127.105 148.52 127 148.265 127 148V140ZM129 141V147H136C136.796 147 137.559 146.684 138.121 146.121C138.684 145.559 139 144.796 139 144C139 143.204 138.684 142.441 138.121 141.879C137.559 141.316 136.796 141 136 141H129Z" fill="white"/>
<path fill-rule="evenodd" clip-rule="evenodd" d="M44 150C44 141.716 50.716 135 59 135C67.284 135 74 141.716 74 150C74 158.284 67.284 165 59 165C50.716 165 44 158.284 44 150ZM59 137C51.82 137 46 142.82 46 150C46 157.18 51.82 163 59 163C66.18 163 72 157.18 72 150C72 142.82 66.18 137 59 137ZM59 141C56.6131 141 54.3239 141.948 52.636 143.636C50.9482 145.324 50 147.613 50 150C50 152.387 50.9482 154.676 52.636 156.364C54.3239 158.052 56.6131 159 59 159C61.3869 159 63.6761 158.052 65.364 156.364C67.0518 154.676 68 152.387 68 150C68 147.613 67.0518 145.324 65.364 143.636C63.6761 141.948 61.3869 141 59 141ZM48 150C48 143.925 52.925 139 59 139C65.075 139 70 143.925 70 150C70 156.075 65.075 161 59 161C52.925 161 48 156.075 48 150Z" fill="white"/>
<path d="M59 140C53.48 140 49 144.48 49 150C49 155.52 53.48 160 59 160C64.52 160 69 155.52 69 150C69 144.48 64.52 140 59 140ZM59 158C54.58 158 51 154.42 51 150C51 148.15 51.63 146.45 52.69 145.1L63.9 156.31C62.5031 157.408 60.7769 158.004 59 158ZM65.31 154.9L54.1 143.69C55.4969 142.592 57.2231 141.996 59 142C63.42 142 67 145.58 67 150C67 151.85 66.37 153.55 65.31 154.9Z" fill="white"/>
<path d="M90.25 101.125C91.2777 101.125 92.2633 100.717 92.99 99.99C93.7167 99.2633 94.125 98.2777 94.125 97.25C94.125 96.2223 93.7167 95.2367 92.99 94.51C92.2633 93.7833 91.2777 93.375 90.25 93.375C89.2223 93.375 88.2367 93.7833 87.51 94.51C86.7833 95.2367 86.375 96.2223 86.375 97.25C86.375 98.2777 86.7833 99.2633 87.51 99.99C88.2367 100.717 89.2223 101.125 90.25 101.125ZM105.75 101.125C106.778 101.125 107.763 100.717 108.49 99.99C109.217 99.2633 109.625 98.2777 109.625 97.25C109.625 96.2223 109.217 95.2367 108.49 94.51C107.763 93.7833 106.778 93.375 105.75 93.375C104.722 93.375 103.737 93.7833 103.01 94.51C102.283 95.2367 101.875 96.2223 101.875 97.25C101.875 98.2777 102.283 99.2633 103.01 99.99C103.737 100.717 104.722 101.125 105.75 101.125Z" fill="white"/>
<path d="M76.6875 97.25C76.6875 93.653 78.1164 90.2033 80.6599 87.6599C83.2033 85.1164 86.653 83.6875 90.25 83.6875H105.75C109.347 83.6875 112.797 85.1164 115.34 87.6599C117.884 90.2033 119.313 93.653 119.313 97.25C119.313 100.847 117.884 104.297 115.34 106.84C112.797 109.384 109.347 110.812 105.75 110.812H90.25C86.653 110.812 83.2033 109.384 80.6599 106.84C78.1164 104.297 76.6875 100.847 76.6875 97.25ZM90.25 87.5625C87.6807 87.5625 85.2167 88.5831 83.3999 90.3999C81.5832 92.2167 80.5625 94.6807 80.5625 97.25C80.5625 99.8193 81.5832 102.283 83.3999 104.1C85.2167 105.917 87.6807 106.937 90.25 106.937H105.75C108.319 106.937 110.783 105.917 112.6 104.1C114.417 102.283 115.438 99.8193 115.438 97.25C115.438 94.6807 114.417 92.2167 112.6 90.3999C110.783 88.5831 108.319 87.5625 105.75 87.5625H90.25ZM80.0859 66.1609C77.4276 66.1609 75.2731 68.3154 75.2731 70.9736V76.8442C75.2731 79.5025 77.4276 81.6609 80.0859 81.6609H80.1479C82.8061 81.6609 84.9606 79.5025 84.9606 76.8442V70.9775C84.9606 68.3192 82.8061 66.1647 80.1479 66.1647L80.0859 66.1609ZM113.023 66.1609C110.365 66.1609 108.211 68.3154 108.211 70.9736V76.8442C108.211 79.5025 110.365 81.6609 113.023 81.6609H113.085C115.744 81.6609 117.898 79.5025 117.898 76.8442V70.9775C117.898 68.3192 115.744 66.1647 113.085 66.1647L113.023 66.1609Z" fill="white"/>
<path d="M138.327 32.6654C133.685 28.0231 126.95 28.4184 122.626 31.964C116.104 29.0127 109.026 27.4907 101.867 27.5H94.125C86.3634 27.5 79.0125 29.2554 72.4405 32.3941C71.2452 30.711 69.6282 29.372 67.7517 28.5114C63.652 26.6436 58.5564 27.2714 54.9294 31.2006L43.1222 44.1547C38.79 48.89 38.79 56.5005 43.1222 61.2357L45.6797 64.0257C44.3961 68.5301 43.7466 73.1913 43.75 77.875V81.75C43.75 109.572 66.3025 132.125 94.125 132.125H101.867C129.69 132.125 152.242 109.572 152.242 81.75V77.875C152.242 72.2562 151.32 66.8506 149.623 61.8015L150.301 61.1234C152.479 58.9334 153.702 55.9701 153.702 52.8812C153.702 49.7923 152.479 46.8291 150.301 44.6391L138.327 32.6654ZM74.75 65.5912V39.9C80.5625 36.9279 87.15 35.25 94.125 35.25H101.867C107.819 35.25 113.484 36.4706 118.63 38.6716C118.49 39.4216 118.42 40.1832 118.421 40.9462V64.855C118.421 75.2322 130.961 80.4674 138.327 73.0971L143.357 68.0674C144.101 71.2177 144.492 74.4999 144.492 77.875V81.75C144.492 105.291 125.408 124.375 101.867 124.375H94.125C70.5844 124.375 51.5 105.291 51.5 81.75V77.875C51.5 75.5345 51.6899 73.2366 52.0503 70.9969L54.9177 74.1356C58.537 78.0881 63.6365 78.7391 67.744 76.8714C71.805 75.0307 74.75 70.8419 74.75 65.5912ZM48.8417 49.3821L60.6372 36.4512C61.8579 35.1337 63.311 35.0059 64.5394 35.5677C65.822 36.1529 67 37.5827 67 39.7992V65.5951C67 67.8155 65.822 69.2376 64.5432 69.8189C63.3226 70.373 61.8695 70.2529 60.6411 68.9082L48.8417 56.0084C47.2181 54.2336 47.2181 51.1607 48.8417 49.3821ZM132.848 38.1485L144.822 50.1222C146.333 51.6335 146.333 54.1367 144.822 55.648L132.848 67.6217C130.376 70.094 126.171 68.3502 126.171 64.8589V40.9462C126.171 37.4394 130.422 35.7227 132.848 38.1485Z" fill="white"/>
</svg>
